<svg xmlns="http://www.w3.org/2000/svg" width="1200" height="420" viewBox="0 0 1200 420" role="img" aria-labelledby="title desc">
  <title id="title">resume-ai workflow animation</title>
  <desc id="desc">Animated workflow showing an existing resume and profile being combined with job listings and AI coding tools to produce tailored one-page PDFs and an application tracker.</desc>
  <defs>
    <linearGradient id="bg" x1="0" x2="1" y1="0" y2="1">
      <stop offset="0%" stop-color="#f8fbfd"/>
      <stop offset="100%" stop-color="#edf4f8"/>
    </linearGradient>
    <filter id="shadow" x="-20%" y="-20%" width="140%" height="140%">
      <feDropShadow dx="0" dy="10" stdDeviation="14" flood-color="#102a3a" flood-opacity="0.14"/>
    </filter>
    <style>
      .title { font: 700 25px system-ui, -apple-system, Segoe UI, sans-serif; fill: #10202b; }
      .label { font: 700 19px system-ui, -apple-system, Segoe UI, sans-serif; fill: #10202b; }
      .small { font: 500 14px system-ui, -apple-system, Segoe UI, sans-serif; fill: #52616c; }
      .tiny { font: 600 12px system-ui, -apple-system, Segoe UI, sans-serif; fill: #52616c; }
      .card { fill: #ffffff; stroke: #cfdae2; stroke-width: 1.4; rx: 18; filter: url(#shadow); }
      .accent { fill: #214b63; }
      .ok { fill: #2e7d59; }
      .line { stroke: #214b63; stroke-width: 4; stroke-linecap: round; fill: none; stroke-dasharray: 12 14; }
      .pulse { animation: pulse 2.8s ease-in-out infinite; transform-origin: center; }
      .float { animation: float 4s ease-in-out infinite; }
      .float2 { animation: float 4s ease-in-out infinite; animation-delay: .7s; }
      .scan { animation: scan 3.4s ease-in-out infinite; }
      .arrow { animation: dash 1.7s linear infinite; }
      .spark { animation: spark 2.4s ease-in-out infinite; opacity: 0; }
      .spark2 { animation-delay: .5s; }
      .spark3 { animation-delay: 1s; }
      @keyframes pulse { 0%,100% { transform: scale(1); opacity: 1; } 50% { transform: scale(1.05); opacity: .86; } }
      @keyframes float { 0%,100% { transform: translateY(0); } 50% { transform: translateY(-8px); } }
      @keyframes scan { 0% { transform: translateY(0); opacity: .1; } 20%,70% { opacity: .7; } 100% { transform: translateY(112px); opacity: .1; } }
      @keyframes dash { to { stroke-dashoffset: -52; } }
      @keyframes spark { 0%,100% { opacity: 0; transform: translateY(8px) scale(.8); } 45% { opacity: 1; transform: translateY(0) scale(1); } }
    </style>
  </defs>

  <rect width="1200" height="420" fill="url(#bg)"/>
  <text x="600" y="54" text-anchor="middle" class="title">resume-ai accelerates grounded resume tailoring</text>
  <text x="600" y="80" text-anchor="middle" class="small">Works with Cursor, Codex, Gemini, and other coding agents while keeping claims tied to a confirmed profile.</text>

  <path class="line arrow" d="M330 214 C398 188 430 188 494 214"/>
  <path class="line arrow" d="M708 214 C776 188 808 188 872 214"/>

  <g class="float">
    <rect class="card" x="72" y="126" width="250" height="198"/>
    <text x="104" y="164" class="label">Existing resume</text>
    <text x="104" y="190" class="small">DOCX / PDF / text</text>
    <rect x="104" y="218" width="168" height="10" rx="5" fill="#dbe6ed"/>
    <rect x="104" y="244" width="126" height="10" rx="5" fill="#dbe6ed"/>
    <rect x="104" y="270" width="184" height="10" rx="5" fill="#dbe6ed"/>
    <rect x="104" y="296" width="142" height="10" rx="5" fill="#dbe6ed"/>
    <rect class="scan" x="94" y="210" width="208" height="18" rx="9" fill="#74a8c1"/>
  </g>

  <g class="float2">
    <rect class="card" x="466" y="118" width="270" height="214"/>
    <text x="498" y="156" class="label">Agent workspace</text>
    <text x="498" y="182" class="small">Match role to PROFILE.md</text>
    <g transform="translate(498 214)">
      <rect width="70" height="28" rx="14" fill="#eef5f8" stroke="#cfdde5"/>
      <text x="35" y="18" text-anchor="middle" class="tiny">Cursor</text>
      <rect x="78" width="66" height="28" rx="14" fill="#eef5f8" stroke="#cfdde5"/>
      <text x="111" y="18" text-anchor="middle" class="tiny">Codex</text>
      <rect x="152" width="70" height="28" rx="14" fill="#eef5f8" stroke="#cfdde5"/>
      <text x="187" y="18" text-anchor="middle" class="tiny">Gemini</text>
    </g>
    <rect x="498" y="264" width="84" height="10" rx="5" class="ok"/>
    <rect x="594" y="264" width="72" height="10" rx="5" fill="#dbe6ed"/>
    <rect x="498" y="288" width="174" height="10" rx="5" fill="#dbe6ed"/>
    <circle class="spark spark1" cx="690" cy="150" r="5" fill="#2e7d59"/>
    <circle class="spark spark2" cx="706" cy="174" r="4" fill="#214b63"/>
    <circle class="spark spark3" cx="688" cy="196" r="3.5" fill="#2e7d59"/>
  </g>

  <g class="float">
    <rect class="card" x="888" y="126" width="250" height="198"/>
    <text x="920" y="164" class="label">Tailored output</text>
    <text x="920" y="190" class="small">HTML + one-page PDF</text>
    <rect x="920" y="218" width="154" height="10" rx="5" fill="#dbe6ed"/>
    <rect x="920" y="244" width="118" height="10" rx="5" fill="#dbe6ed"/>
    <rect x="920" y="270" width="174" height="10" rx="5" fill="#dbe6ed"/>
    <g class="pulse">
      <circle cx="1082" cy="288" r="18" class="ok"/>
      <path d="M1072 288 l7 7 l14 -16" fill="none" stroke="#fff" stroke-width="4" stroke-linecap="round" stroke-linejoin="round"/>
    </g>
  </g>

  <g transform="translate(360 356)">
    <rect width="480" height="36" rx="18" fill="#ffffff" stroke="#cfdae2"/>
    <text x="240" y="24" text-anchor="middle" class="small">profile -> tailored resume -> tracker -> verified PDF</text>
  </g>
</svg>
